<svg xmlns="http://www.w3.org/2000/svg" xmlns:xlink="http://www.w3.org/1999/xlink" version="1.0" x="0px" y="0px" viewBox="0 0 56.693 55.86625" enable-background="new 0 0 56.693 56.693" xml:space="preserve"><g><polygon fill="none" points="42.799,17.893 14.106,17.893 28.452,28.69  "></polygon><polygon fill="none" points="44.912,36.911 44.912,19.657 33.561,28.2  "></polygon><path fill="none" d="M29.726,31.087c-0.381,0.287-0.827,0.43-1.274,0.43c-0.446,0-0.893-0.143-1.274-0.43l-1.591-1.197   l-11.611,8.911h28.994l-11.633-8.927L29.726,31.087z"></path><polygon fill="none" points="23.365,28.217 11.781,19.498 11.781,37.107  "></polygon><path fill="#ffffff" d="M11.365,41.481h33.936c1.242,0,2.291-1.018,2.291-2.224V17.423c0-1.198-1.049-2.21-2.291-2.21H11.365   c-1.249,0-2.264,0.992-2.264,2.21v21.834C9.101,40.463,10.138,41.481,11.365,41.481z M10.003,18.159l1.612-2.142l2.491,1.875   h28.693l2.491-1.875l1.612,2.142l-1.99,1.498v17.254l2.085,1.6l-1.632,2.126l-2.394-1.837H13.977l-2.394,1.837l-1.632-2.126   l1.83-1.405V19.498L10.003,18.159z"></path><path fill="#ffffff" d="M24.779,27.132l1.632,2.126l-0.823,0.631l1.591,1.197c0.381,0.287,0.827,0.43,1.274,0.43   c0.446,0,0.893-0.143,1.274-0.43l1.612-1.213l-0.801-0.615l1.632-2.126l1.392,1.069l11.351-8.543l1.99-1.498l-1.612-2.142   l-2.491,1.875L28.452,28.69L14.106,17.893l-2.491-1.875l-1.612,2.142l1.778,1.339l11.584,8.719L24.779,27.132z"></path><polygon fill="#ffffff" points="32.169,27.132 30.537,29.258 31.338,29.873 42.971,38.801 45.365,40.638 46.997,38.512    44.912,36.911 33.561,28.2  "></polygon><polygon fill="#ffffff" points="26.411,29.258 24.779,27.132 23.365,28.217 11.781,37.107 9.951,38.512 11.583,40.638    13.977,38.801 25.588,29.89  "></polygon></g></svg>