<svg xmlns="http://www.w3.org/2000/svg" xmlns:xlink="http://www.w3.org/1999/xlink" version="1.2" baseProfile="tiny" x="0px" y="0px" viewBox="0 0 56.693 70.86625" xml:space="preserve" fill="#fff"><path d="M28.347,44.593c-0.343,0-0.687-0.111-0.973-0.333l-0.829-0.642c-7.606-5.887-12.197-9.441-14.87-14.182  c-2.562-4.532-2.255-8.11-1.547-10.313c0.861-2.677,2.8-4.832,5.461-6.067c1.369-0.634,2.856-0.956,4.419-0.956  c3.303,0,6.353,1.406,8.339,3.725c1.987-2.318,5.036-3.724,8.34-3.724c1.562,0,3.048,0.321,4.416,0.954  c2.662,1.235,4.602,3.389,5.463,6.067c0.708,2.202,1.014,5.78-1.548,10.314c-2.675,4.742-7.272,8.301-14.889,14.196L29.32,44.26  C29.033,44.482,28.69,44.593,28.347,44.593z M20.007,15.279c-1.098,0-2.135,0.222-3.082,0.661c-1.846,0.857-3.186,2.333-3.772,4.156  c-0.737,2.292-0.291,4.982,1.289,7.778c2.344,4.157,6.458,7.357,13.904,13.121c7.445-5.763,11.56-8.966,13.904-13.119  c1.581-2.797,2.027-5.487,1.29-7.779c-0.586-1.823-1.926-3.299-3.773-4.156c-0.946-0.438-1.982-0.66-3.08-0.66  c-2.983,0-5.755,1.656-6.898,4.121c-0.26,0.562-0.823,0.921-1.442,0.921c-0.619,0-1.181-0.359-1.442-0.921  C25.762,16.935,22.99,15.279,20.007,15.279z"></path></svg>