<svg xmlns="http://www.w3.org/2000/svg" xmlns:xlink="http://www.w3.org/1999/xlink" version="1.2" baseProfile="tiny" x="0px" y="0px" viewBox="0 0 56.693 70.86625" xml:space="preserve" fill="#fff"><path d="M28.346,39.679c-6.249,0-11.333-5.084-11.333-11.333s5.084-11.333,11.333-11.333S39.68,22.097,39.68,28.346  S34.596,39.679,28.346,39.679z M28.346,20.191c-4.497,0-8.155,3.659-8.155,8.155s3.658,8.155,8.155,8.155  c4.497,0,8.155-3.659,8.155-8.155S32.843,20.191,28.346,20.191z M36.552,43.881c5.775-3.057,9.363-9.009,9.363-15.535  c0-6.525-3.588-12.477-9.363-15.535c-0.646-0.341-1.448-0.095-1.79,0.551c-0.342,0.647-0.096,1.448,0.551,1.79  c4.906,2.596,7.953,7.652,7.953,13.193c0,5.542-3.048,10.598-7.953,13.194c-0.646,0.342-0.893,1.144-0.551,1.79  c0.237,0.449,0.696,0.705,1.171,0.705C36.143,44.035,36.355,43.986,36.552,43.881z M21.931,43.33  c0.342-0.647,0.096-1.448-0.551-1.79c-4.906-2.596-7.953-7.652-7.953-13.194c0-5.541,3.048-10.597,7.953-13.193  c0.646-0.342,0.893-1.144,0.551-1.79c-0.342-0.646-1.144-0.892-1.79-0.551c-5.775,3.057-9.363,9.009-9.363,15.535  c0,6.526,3.588,12.478,9.363,15.535c0.198,0.105,0.409,0.154,0.618,0.154C21.234,44.035,21.693,43.779,21.931,43.33z"></path></svg>