<svg xmlns="http://www.w3.org/2000/svg" xmlns:xlink="http://www.w3.org/1999/xlink" version="1.2" baseProfile="tiny" x="0px" y="0px" viewBox="0 0 56.693 70.86625" xml:space="preserve" fill="#fff"><path d="M28.347,37.393c-4.988,0-9.046-4.058-9.046-9.046c0-4.988,4.058-9.046,9.046-9.046c4.988,0,9.046,4.058,9.046,9.046  C37.393,33.335,33.335,37.393,28.347,37.393z M28.347,21.949c-3.527,0-6.398,2.87-6.398,6.398s2.87,6.398,6.398,6.398  c3.528,0,6.398-2.87,6.398-6.398S31.874,21.949,28.347,21.949z M29.671,44.821v-3.949c0-0.731-0.593-1.324-1.324-1.324  c-0.731,0-1.324,0.593-1.324,1.324v3.949c0,0.731,0.593,1.324,1.324,1.324C29.078,46.145,29.671,45.553,29.671,44.821z   M29.671,15.821v-3.949c0-0.731-0.593-1.324-1.324-1.324c-0.731,0-1.324,0.593-1.324,1.324v3.949c0,0.731,0.593,1.324,1.324,1.324  C29.078,17.145,29.671,16.552,29.671,15.821z M17.145,28.347c0-0.732-0.593-1.324-1.324-1.324h-3.949  c-0.731,0-1.324,0.593-1.324,1.324c0,0.731,0.593,1.324,1.324,1.324h3.949C16.552,29.671,17.145,29.078,17.145,28.347z   M46.145,28.347c0-0.732-0.593-1.324-1.324-1.324h-3.949c-0.731,0-1.324,0.593-1.324,1.324c0,0.731,0.593,1.324,1.324,1.324h3.949  C45.553,29.671,46.145,29.078,46.145,28.347z M20.426,20.426c0.517-0.517,0.517-1.355,0-1.872l-2.792-2.792  c-0.517-0.517-1.356-0.517-1.873,0c-0.517,0.517-0.517,1.355,0,1.873l2.792,2.792c0.258,0.259,0.597,0.388,0.936,0.388  C19.829,20.814,20.168,20.684,20.426,20.426z M40.932,40.932c0.517-0.517,0.517-1.355,0-1.872l-2.792-2.792  c-0.517-0.517-1.356-0.517-1.872,0c-0.517,0.517-0.517,1.355,0,1.872l2.792,2.792c0.258,0.259,0.597,0.388,0.936,0.388  C40.335,41.32,40.674,41.191,40.932,40.932z M38.14,20.426l2.792-2.792c0.517-0.517,0.517-1.355,0-1.873  c-0.517-0.517-1.356-0.517-1.873,0l-2.792,2.792c-0.517,0.517-0.517,1.355,0,1.872c0.258,0.259,0.597,0.388,0.936,0.388  C37.542,20.814,37.881,20.684,38.14,20.426z M17.634,40.932l2.792-2.792c0.517-0.517,0.517-1.355,0-1.872  c-0.517-0.517-1.356-0.517-1.872,0l-2.792,2.792c-0.517,0.517-0.517,1.355,0,1.872c0.258,0.259,0.597,0.388,0.936,0.388  C17.036,41.32,17.375,41.191,17.634,40.932z"></path></svg>